<?xml version="1.0" encoding="utf-8"?>
<!-- Generator: Adobe Illustrator 27.0.0, SVG Export Plug-In . SVG Version: 6.00 Build 0)  -->
<svg version="1.1" id="Layer_1" xmlns="http://www.w3.org/2000/svg" xmlns:xlink="http://www.w3.org/1999/xlink" x="0px" y="0px"
	 viewBox="0 0 301.12 139.16" style="enable-background:new 0 0 301.12 139.16;" xml:space="preserve">
<g>
	<path d="M110.51,104c-1.9-2.31-4.09-4.6-6.44-6.49c-0.19-0.62-0.32-1.26-0.43-1.9c-0.24-1.87-0.14-3.75-0.13-5.63
		c0.02-2.07,0-4.14,0-6.21c0-4.17,0-8.33,0-12.5c0-5.35-0.01-10.7,0.01-16.05c0.04-8.48,0.13-16.96,0.04-25.44
		c-0.02-1.87,0.01-3.64-0.83-5.39c-0.95-1.99-2.35-3.81-3.73-5.53c-1.62-2.01-3.45-3.86-5.32-5.64c-0.35-0.33-0.7-0.66-1.06-0.98
		c-1.28-1.33-2.64-2.59-4.06-3.72c-0.22-0.17-1.47-1.32-1.73-1.06c-0.26,0.26,1.05,1.73,1.06,1.73c1.46,1.8,3.07,3.48,4.74,5.08
		c0.63,0.99,1.15,2.04,1.37,3.23c0.28,3.49,0.1,7.06,0.09,10.55c0,4.94-0.03,9.87-0.05,14.81c-0.02,4.81-0.03,9.62-0.03,14.43
		c0,8.83-0.19,17.68-0.04,26.5c0.03,1.74,0.25,3.5,0.8,5.16c0.47,1.4,1.33,2.59,2.24,3.73c3.67,4.59,8.23,8.37,12.82,11.98
		c-0.1-0.08,1.49,1.3,1.73,1.06C111.81,105.49,110.43,103.9,110.51,104z M104.84,99.28c-0.03-0.04-0.09-0.12-0.14-0.19
		c0,0,0-0.01-0.01-0.01C104.85,99.27,104.87,99.31,104.84,99.28z M100.58,94.74c-0.13-0.11-0.26-0.21-0.38-0.32
		c0.33,0.2,0.65,0.47,0.95,0.77C100.95,95.04,100.76,94.89,100.58,94.74z"/>
	<path d="M130.08,105.73c0.24-0.24-1.14-1.83-1.06-1.73c-1.9-2.31-4.09-4.6-6.44-6.49c-0.19-0.62-0.32-1.26-0.43-1.9
		c-0.24-1.87-0.14-3.75-0.13-5.63c0.02-2.07,0-4.14,0-6.21c0-4.17,0-8.33,0-12.5c0-5.35-0.01-10.7,0.01-16.05
		c0.04-8.48,0.13-16.96,0.04-25.44c-0.02-1.87,0.01-3.64-0.83-5.39c-0.95-1.99-2.35-3.81-3.73-5.53c-1.62-2.01-3.45-3.86-5.32-5.64
		c-0.35-0.33-0.7-0.66-1.06-0.98c-1.28-1.33-2.64-2.59-4.06-3.72c-0.22-0.17-1.47-1.32-1.73-1.06c-0.26,0.26,1.05,1.73,1.06,1.73
		c1.46,1.8,3.07,3.48,4.74,5.08c0.63,0.99,1.15,2.04,1.37,3.23c0.28,3.49,0.1,7.06,0.09,10.55c0,4.94-0.03,9.87-0.05,14.81
		c-0.02,4.81-0.03,9.62-0.03,14.43c0,8.83-0.19,17.68-0.04,26.5c0.03,1.74,0.25,3.5,0.8,5.16c0.47,1.4,1.33,2.59,2.24,3.73
		c3.67,4.59,8.23,8.37,12.82,11.98C128.25,104.6,129.84,105.97,130.08,105.73z M123.36,99.28c-0.03-0.04-0.09-0.12-0.14-0.19
		c0,0,0-0.01-0.01-0.01C123.37,99.27,123.39,99.31,123.36,99.28z M119.09,94.74c-0.13-0.1-0.26-0.21-0.38-0.32
		c0.33,0.2,0.65,0.47,0.95,0.77C119.47,95.04,119.28,94.89,119.09,94.74z"/>
	<path d="M62.01,78.3c0.06,0.05,0.11,0.1,0.17,0.16c0.06,0.05,0.12,0.11,0.18,0.16c0.03,0.02,0.05,0.05,0.08,0.07
		C62.26,78.52,62.12,78.4,62.01,78.3C62.01,78.3,62.01,78.3,62.01,78.3z"/>
	<path d="M88.33,100.5c-0.78-0.79-1.59-1.54-2.42-2.26c-0.28-0.85-0.46-1.73-0.62-2.62c-0.24-1.88-0.15-3.76-0.13-5.65
		c0.02-2.07,0-4.14,0-6.21c0-0.89,0-1.78,0-2.67c0.04,0,0.04-0.05,0-0.14c0-3.08,0-6.16,0-9.24c0-4.02,0-8.04,0-12.06
		c0-4.02,0.17-8.05,0-12.07c-0.02-0.6-0.74-1.34-1.06-1.73c-0.99-1.22-2.1-2.39-3.22-3.5c-1.12-1.11-2.26-2.24-3.5-3.22
		c-0.46-0.37-1.1-1.06-1.73-1.06c-8.57,0-17.13,0-25.7,0c-1.24,0-2.47,0-3.71,0c-0.05,0-0.03,0.08,0.04,0.22c0,0.02,0,0.05,0,0.08
		c0.08,0.69,1.22,1.76,1.75,2.31c0.58,0.66,1.18,1.3,1.8,1.93c0.46,0.48,0.93,0.94,1.41,1.4c0.34,0.34,0.69,0.67,1.04,1
		c0.91,0.9,1.84,1.79,2.8,2.64c1.23,1.09,2.49,2.2,3.93,3c2.01,1.12,4.5,1.31,6.75,1.1c2.38-0.22,4.73-0.91,6.91-1.88
		c1-0.44,2-0.93,3.03-1.31c-0.02,1.34-0.03,2.68-0.03,4.02c0,2.68,0,5.35,0,8.03c-4.58-3.43-10.24-6.33-16.03-5.11
		c-2.43,0.51-4.84,1.61-6.49,3.5c-0.93,1.06-1.72,2.47-1.9,3.89c-0.19,1.44,0.22,3.03,0.65,4.4c0.7,2.23,1.95,4.03,3.45,5.8
		c2.55,3.01,5.33,5.82,8.19,8.52c4.62,4.36,9.49,8.44,14.39,12.48c2.43,2,4.88,3.99,7.32,5.99c0.84,0.69,1.67,1.38,2.51,2.07
		c0.48,0.41,0.97,0.81,1.46,1.21c0.25,0.21,0.5,0.42,0.75,0.62c0.07,0.06,0.23,0.19,0.37,0.31c0.06,0.05,0.11,0.09,0.14,0.12
		c0.31,0.27,1.86,1.86,2.47,1.9c0.58,0.03,0.17-0.44-0.11-0.85C91.56,103.72,89.97,102.03,88.33,100.5z M77.12,90.86
		c0.02,0.04,0.04,0.08,0.07,0.12c0.04,0.07,0.08,0.13,0.12,0.2c-0.07-0.06-0.14-0.11-0.21-0.17C77.1,90.96,77.11,90.91,77.12,90.86z
		 M64.67,80.68c-0.61-0.53-1.21-1.07-1.81-1.61c-0.14-0.13-0.28-0.25-0.42-0.38c0.09,0.08,0.18,0.17,0.28,0.26
		c-0.12-0.11-0.24-0.23-0.36-0.34c-0.09-0.08-0.18-0.16-0.26-0.24c-0.02-0.02-0.05-0.04-0.07-0.06c0-0.01-0.01-0.01-0.01-0.02
		c-0.01-0.01-0.02-0.02-0.03-0.03c0.01,0.01,0.02,0.02,0.03,0.03c-0.24-0.48-0.41-1.15-0.53-1.49c-0.32-0.92-0.56-1.86-0.72-2.81
		c-0.7-6.67,7.37-9.76,12.85-9.11c0.69,0.12,1.37,0.27,2.04,0.47c0,0.74,0,1.48,0,2.22c0,1.34,0,2.68,0.01,4.02c0,0,0,0-0.01,0
		c-2.58,0.03-5.39,0.38-7.16,2.44c-1.68,1.96-2.63,4.71-2.67,7.27c0,0.16,0.06,0.33,0.15,0.51c-0.14-0.12-0.29-0.24-0.37-0.31
		C65.3,81.23,64.98,80.96,64.67,80.68z M65.99,81.82C65.99,81.82,65.99,81.82,65.99,81.82c-0.07-0.06-0.15-0.12-0.22-0.19
		C65.85,81.7,65.92,81.77,65.99,81.82z"/>
	<path d="M201.17,100.5c-0.78-0.79-1.59-1.54-2.42-2.26c-0.28-0.85-0.46-1.73-0.62-2.62c-0.24-1.88-0.15-3.76-0.13-5.65
		c0.02-2.07,0-4.14,0-6.21c0-0.89,0-1.78,0-2.67c0.04,0,0.04-0.05,0-0.14c0-3.08,0-6.16,0-9.24c0-4.02,0-8.04,0-12.06
		c0-4.02,0.17-8.05,0-12.07c-0.02-0.6-0.74-1.34-1.06-1.73c-0.99-1.22-2.1-2.39-3.22-3.5c-1.12-1.11-2.26-2.24-3.5-3.22
		c-0.46-0.37-1.1-1.06-1.73-1.06c-8.57,0-17.13,0-25.7,0c-1.24,0-2.47,0-3.71,0c-0.05,0-0.03,0.08,0.04,0.22c0,0.02,0,0.05,0,0.08
		c0.08,0.69,1.22,1.76,1.75,2.31c0.58,0.66,1.18,1.3,1.8,1.93c0.46,0.48,0.93,0.94,1.41,1.4c0.34,0.34,0.69,0.67,1.04,1
		c0.91,0.9,1.84,1.79,2.8,2.64c1.23,1.09,2.49,2.2,3.93,3c2.01,1.12,4.5,1.31,6.75,1.1c2.38-0.22,4.73-0.91,6.91-1.88
		c1-0.44,2-0.93,3.03-1.31c-0.02,1.34-0.03,2.68-0.03,4.02c0,2.68,0,5.35,0,8.03c-4.58-3.43-10.24-6.33-16.03-5.11
		c-2.43,0.51-4.84,1.61-6.49,3.5c-0.93,1.06-1.72,2.47-1.9,3.89c-0.19,1.44,0.22,3.03,0.64,4.4c0.7,2.23,1.95,4.03,3.45,5.8
		c2.55,3.01,5.33,5.82,8.19,8.52c4.62,4.36,9.49,8.44,14.39,12.48c2.43,2,4.88,3.99,7.32,5.99c0.84,0.69,1.67,1.38,2.51,2.07
		c0.48,0.41,0.97,0.81,1.46,1.21c0.25,0.21,0.5,0.42,0.75,0.62c0.07,0.06,0.23,0.19,0.37,0.31c0.06,0.05,0.11,0.09,0.14,0.12
		c0.31,0.27,1.86,1.86,2.47,1.9c0.58,0.03,0.17-0.44-0.11-0.85C204.4,103.72,202.81,102.03,201.17,100.5z M189.96,90.86
		c0.02,0.04,0.04,0.08,0.07,0.12c0.04,0.07,0.08,0.13,0.12,0.2c-0.07-0.06-0.14-0.11-0.21-0.17
		C189.94,90.96,189.96,90.91,189.96,90.86z M177.51,80.68c-0.61-0.53-1.21-1.07-1.81-1.61c-0.14-0.13-0.28-0.25-0.42-0.38
		c0.09,0.08,0.18,0.17,0.28,0.26c-0.12-0.11-0.24-0.23-0.36-0.34c-0.09-0.08-0.18-0.16-0.26-0.24c-0.02-0.02-0.05-0.04-0.07-0.06
		c0-0.01-0.01-0.01-0.01-0.02c-0.01-0.01-0.02-0.02-0.03-0.03c0.01,0.01,0.02,0.02,0.03,0.03c-0.24-0.48-0.41-1.15-0.53-1.49
		c-0.32-0.92-0.56-1.86-0.72-2.81c-0.7-6.67,7.37-9.76,12.85-9.11c0.69,0.12,1.37,0.27,2.04,0.47c0,0.74,0,1.48,0,2.22
		c0,1.34,0,2.68,0.01,4.02c0,0,0,0-0.01,0c-2.58,0.03-5.39,0.38-7.16,2.44c-1.68,1.96-2.63,4.71-2.67,7.27
		c0,0.16,0.06,0.33,0.15,0.51c-0.14-0.12-0.29-0.24-0.37-0.31C178.14,81.23,177.83,80.96,177.51,80.68z M178.83,81.82
		C178.83,81.82,178.83,81.82,178.83,81.82c-0.07-0.06-0.15-0.12-0.22-0.19C178.69,81.7,178.77,81.77,178.83,81.82z"/>
	<path d="M174.86,78.3c0.06,0.05,0.11,0.1,0.17,0.16c0.06,0.05,0.12,0.11,0.18,0.16c0.03,0.02,0.05,0.05,0.08,0.07
		C175.1,78.52,174.96,78.4,174.86,78.3C174.86,78.3,174.86,78.3,174.86,78.3z"/>
	<path d="M258.14,78.3c0.06,0.05,0.11,0.1,0.17,0.16c0.06,0.05,0.12,0.11,0.18,0.16c0.03,0.02,0.05,0.05,0.08,0.07
		C258.38,78.52,258.25,78.4,258.14,78.3C258.14,78.3,258.14,78.3,258.14,78.3z"/>
	<path d="M284.45,100.5c-0.78-0.79-1.59-1.54-2.42-2.26c-0.28-0.85-0.46-1.73-0.62-2.62c-0.24-1.88-0.15-3.76-0.13-5.65
		c0.02-2.07,0-4.14,0-6.21c0-0.89,0-1.78,0-2.67c0.04,0,0.04-0.05,0-0.14c0-3.08,0-6.16,0-9.24c0-4.02,0-8.04,0-12.06
		c0-4.02,0.17-8.05,0-12.07c-0.02-0.6-0.74-1.34-1.06-1.73c-0.99-1.22-2.1-2.39-3.22-3.5c-1.12-1.11-2.26-2.24-3.5-3.22
		c-0.46-0.37-1.1-1.06-1.73-1.06c-8.57,0-17.13,0-25.7,0c-1.24,0-2.47,0-3.71,0c-0.05,0-0.03,0.08,0.04,0.22c0,0.02,0,0.05,0,0.08
		c0.08,0.69,1.22,1.76,1.75,2.31c0.58,0.66,1.18,1.3,1.8,1.93c0.46,0.48,0.93,0.94,1.41,1.4c0.34,0.34,0.69,0.67,1.04,1
		c0.91,0.9,1.84,1.79,2.8,2.64c1.23,1.09,2.49,2.2,3.93,3c2.01,1.12,4.5,1.31,6.75,1.1c2.38-0.22,4.73-0.91,6.91-1.88
		c1-0.44,2-0.93,3.03-1.31c-0.02,1.34-0.03,2.68-0.03,4.02c0,2.68,0,5.35,0,8.03c-4.58-3.43-10.24-6.33-16.03-5.11
		c-2.43,0.51-4.84,1.61-6.49,3.5c-0.93,1.06-1.72,2.47-1.9,3.89c-0.19,1.44,0.22,3.03,0.65,4.4c0.7,2.23,1.95,4.03,3.45,5.8
		c2.55,3.01,5.33,5.82,8.19,8.52c4.62,4.36,9.49,8.44,14.39,12.48c2.43,2,4.88,3.99,7.32,5.99c0.84,0.69,1.67,1.38,2.51,2.07
		c0.48,0.41,0.97,0.81,1.46,1.21c0.25,0.21,0.5,0.42,0.75,0.62c0.07,0.06,0.23,0.19,0.37,0.31c0.06,0.05,0.11,0.09,0.14,0.12
		c0.31,0.27,1.86,1.86,2.47,1.9c0.58,0.03,0.17-0.44-0.11-0.85C287.68,103.72,286.09,102.03,284.45,100.5z M273.25,90.86
		c0.02,0.04,0.04,0.08,0.07,0.12c0.04,0.07,0.08,0.13,0.12,0.2c-0.07-0.06-0.14-0.11-0.21-0.17
		C273.23,90.96,273.24,90.91,273.25,90.86z M260.8,80.68c-0.61-0.53-1.21-1.07-1.81-1.61c-0.14-0.13-0.28-0.25-0.42-0.38
		c0.09,0.08,0.18,0.17,0.28,0.26c-0.12-0.11-0.24-0.23-0.36-0.34c-0.09-0.08-0.18-0.16-0.26-0.24c-0.02-0.02-0.05-0.04-0.07-0.06
		c0-0.01-0.01-0.01-0.01-0.02c-0.01-0.01-0.02-0.02-0.03-0.03c0.01,0.01,0.02,0.02,0.03,0.03c-0.24-0.48-0.41-1.15-0.53-1.49
		c-0.32-0.92-0.56-1.86-0.72-2.81c-0.7-6.67,7.37-9.76,12.85-9.11c0.69,0.12,1.37,0.27,2.04,0.47c0,0.74,0,1.48,0,2.22
		c0,1.34,0,2.68,0.01,4.02c0,0,0,0-0.01,0c-2.58,0.03-5.39,0.38-7.16,2.44c-1.68,1.96-2.63,4.71-2.67,7.27
		c0,0.16,0.06,0.33,0.15,0.51c-0.14-0.12-0.29-0.24-0.37-0.31C261.43,81.23,261.11,80.96,260.8,80.68z M262.12,81.82
		C262.12,81.82,262.12,81.82,262.12,81.82c-0.07-0.06-0.15-0.12-0.22-0.19C261.98,81.7,262.05,81.77,262.12,81.82z"/>
	<path d="M130.34,43.32c0.31,0.31,0.63,0.62,0.94,0.93c-0.02,2.79-0.08,5.58-0.08,8.37c0,4.99,0,9.97,0,14.96
		c0,4.93,0.05,9.86-0.04,14.78c-0.05,2.81,0.11,6.11,1.56,8.62c1.78,3.09,4.55,5.68,7.1,8.11c2.08,1.98,4.27,3.82,6.53,5.59
		c-0.1-0.08,1.49,1.3,1.73,1.06c0.24-0.24-1.14-1.83-1.06-1.73c-1.67-2.03-3.56-4.03-5.58-5.77c-0.28-0.85-0.46-1.73-0.62-2.62
		c-0.24-1.88-0.15-3.76-0.13-5.65c0.02-2.07,0-4.14,0-6.21c0-4.02,0-8.03,0-12.05c0-4.02,0-8.04,0-12.06c0-4.02,0.17-8.05,0-12.07
		c-0.02-0.6-0.74-1.34-1.06-1.73c-0.99-1.22-2.1-2.39-3.22-3.5c-1.12-1.11-2.26-2.24-3.5-3.22c-0.46-0.37-1.1-1.06-1.73-1.06
		c-1.71,0-3.42,0-5.13,0c-0.24,0,1.11,1.79,1.08,1.76C128.13,41.07,129.23,42.22,130.34,43.32z"/>
	<path d="M127.14,39.85c-0.01-0.01-0.02-0.02-0.03-0.03C127.13,39.84,127.14,39.85,127.14,39.85z"/>
	<path d="M128.03,17.52c-0.06-0.11-0.12-0.22-0.17-0.33c-0.07-0.14-0.04-0.09,0.1,0.18C127.99,17.42,128.01,17.47,128.03,17.52
		c0.6,0.74,1.26,1.44,1.91,2.12c-0.81-0.58-1.44-1.28-1.89-2.09c0.07,0.14,0.13,0.29,0.19,0.43c0.15,0.4,0.24,0.81,0.31,1.22
		c0.24,2.19-0.28,4.34-0.34,6.53c-0.03,1.02,0.04,2.09,0.38,3.06c0.72,2.05,2.63,3.84,4.05,5.35c1.18,1.25,2.42,2.47,3.71,3.61
		c0.27,0.24,1.91,1.89,2.47,1.9c0.57,0,0.19-0.42-0.11-0.85c-0.16-0.23-0.33-0.45-0.5-0.68c-0.05-0.1-0.11-0.21-0.15-0.31
		c-0.12-0.32-0.2-0.64-0.26-0.97c-0.27-2.2,0.3-4.4,0.34-6.6c0.02-1.08-0.07-2.2-0.42-3.23c-0.77-2.23-2.73-4.11-4.31-5.77
		c-1.19-1.25-2.42-2.47-3.71-3.61c-0.27-0.24-1.91-1.89-2.47-1.9c-0.57,0-0.19,0.42,0.11,0.85
		C127.54,16.91,127.78,17.22,128.03,17.52z M138.11,38.02c-0.64-0.79-1.34-1.54-2.03-2.28C136.43,36.12,137.63,37.3,138.11,38.02z"
		/>
	<path d="M247.97,122.04C247.97,122.04,247.97,122.03,247.97,122.04C247.97,122.04,247.97,122.04,247.97,122.04z"/>
	<polygon points="248.24,115.24 248.25,115.25 248.24,115.24 	"/>
	<path d="M158.38,45.87c-0.99-1.22-2.1-2.39-3.22-3.5c-1.12-1.11-2.26-2.24-3.5-3.22c-0.46-0.37-1.1-1.06-1.73-1.06
		c-1.71,0-3.42,0-5.13,0c-0.24,0,1.11,1.79,1.08,1.76c0.98,1.21,2.09,2.37,3.19,3.47c0.32,0.32,0.64,0.64,0.97,0.95
		c0,4.09-0.11,8.19-0.11,12.28c0,5.97,0,11.95,0,17.92c0,11.25,0,22.5,0,33.75c-0.08-0.02-0.15-0.02-0.23-0.01
		c-3.48,0.49-6.21,2.54-7.62,5.76c-1.16,2.66-1.42,6.47-5.2,6.07c-0.92-1.03-1.84-2.06-2.75-3.08c-2-2.24-4.17-4.63-6.67-6.33
		c-0.34-0.23-0.86-0.73-0.85-0.11c0.12,0.2,0.24,0.39,0.37,0.59c0.48,0.65,0.99,1.28,1.53,1.87c1.56,1.75,3.14,3.49,4.69,5.25
		c3.09,3.49,6.38,6.89,10.05,9.79c1.86,1.47,3.93,2.98,6.3,3.51c3.31,0.74,6.08-0.74,7.75-3.62c2.06-3.56,2.13-7.71,2.13-11.7
		c0-14.47,0-28.94,0-43.41c0-3.57,0-7.14,0-10.71c0-4.83,0.2-9.67,0-14.5C159.41,47,158.7,46.26,158.38,45.87z"/>
	<path d="M145.89,39.85c-0.01-0.01-0.02-0.02-0.03-0.03C145.88,39.84,145.88,39.85,145.89,39.85z"/>
	<path d="M146.78,17.52c-0.06-0.11-0.12-0.22-0.17-0.33c-0.07-0.14-0.04-0.09,0.1,0.18C146.73,17.42,146.75,17.47,146.78,17.52
		c0.6,0.74,1.26,1.44,1.91,2.12c-0.81-0.58-1.44-1.28-1.89-2.09c0.07,0.14,0.13,0.29,0.19,0.43c0.15,0.4,0.24,0.81,0.31,1.22
		c0.24,2.19-0.28,4.34-0.34,6.53c-0.03,1.02,0.04,2.09,0.38,3.06c0.72,2.05,2.63,3.84,4.05,5.35c1.18,1.25,2.42,2.47,3.71,3.61
		c0.27,0.24,1.91,1.89,2.47,1.9c0.57,0,0.19-0.42-0.11-0.85c-0.16-0.23-0.33-0.45-0.5-0.67c-0.05-0.1-0.11-0.21-0.15-0.31
		c-0.12-0.32-0.2-0.64-0.26-0.97c-0.27-2.2,0.3-4.4,0.34-6.6c0.02-1.08-0.07-2.2-0.42-3.23c-0.77-2.23-2.73-4.11-4.31-5.77
		c-1.19-1.25-2.42-2.47-3.71-3.61c-0.27-0.24-1.91-1.89-2.47-1.9c-0.57,0-0.19,0.42,0.11,0.85
		C146.29,16.91,146.53,17.22,146.78,17.52z M156.85,38.02c-0.64-0.79-1.34-1.54-2.03-2.28C155.17,36.12,156.37,37.3,156.85,38.02z"
		/>
	<path d="M247.46,49.33c0.18,0.04,0.36,0.1,0.54,0.18c0.15,0.07,0.29,0.15,0.45,0.22c0.02,0.01,0.04,0.02,0.05,0.02
		c0.01,0.01,0.03,0.03,0.04,0.04c-0.09-0.02-0.32-0.1,0.05,0.05c1.04,1.03,2.11,2.06,3.25,2.97c0.04,0.03,1.37,1.24,1.73,1.06
		c0.46-0.24-4.24-5.19-4.28-5.23c-2.03-2.03-4.11-4.01-6.32-5.86c-1.1-0.92-2.24-1.83-3.51-2.51c-1.01-0.54-2.15-0.73-2.83,0.34
		c-0.69,1.09-0.93,2.46-1.42,3.64c-0.55,1.29-1.34,2.52-2.25,3.64c0-0.1-0.01-0.2-0.01-0.31c-0.02-0.6-0.74-1.34-1.06-1.73
		c-0.99-1.22-2.1-2.39-3.22-3.5c-1.12-1.11-2.26-2.24-3.5-3.22c-0.46-0.37-1.1-1.06-1.73-1.06c-1.71,0-3.42,0-5.13,0
		c-0.01,0-0.02,0.01-0.02,0.01c-0.05-0.01-0.09-0.01-0.14-0.01c-0.04,0-0.07,0-0.11,0c-0.24-0.02-0.48-0.02-0.7,0
		c-0.98,0-1.96,0-2.94,0c0-2.77-0.01-5.54-0.04-8.31c-0.02-1.87,0.01-3.64-0.83-5.39c-0.95-1.99-2.35-3.81-3.73-5.53
		c-1.62-2.01-3.45-3.86-5.32-5.64c-0.35-0.33-0.7-0.66-1.06-0.98c-1.28-1.33-2.64-2.59-4.06-3.72c-0.22-0.17-1.47-1.32-1.73-1.06
		c-0.26,0.26,1.05,1.73,1.06,1.73c1.46,1.8,3.07,3.48,4.74,5.08c0.63,0.99,1.15,2.04,1.37,3.23c0.14,1.81,0.08,3.66,0.09,5.48
		c0.01,2.9,0.01,5.81,0,8.71c-0.01,2.13-0.01,4.26-0.02,6.39c-2.85,0-5.69,0-8.54,0c-1.03,0-2.06,0-3.1,0
		c-0.05,0-0.03,0.08,0.04,0.22c0,0.02,0,0.05,0,0.08c0.08,0.69,1.22,1.76,1.75,2.31c0.58,0.66,1.18,1.3,1.8,1.93
		c0.46,0.48,0.93,0.94,1.41,1.4c0.36,0.35,0.71,0.69,1.08,1.03c1.3,1.27,2.61,2.53,4.01,3.69c0.48,0.4,0.98,0.81,1.51,1.18
		c-0.02,9.07,0,18.15,0,27.22c0,2.61-0.18,5.27,0.01,7.88c0.1,1.37,0.28,2.59,0.98,3.77c1.99,3.37,4.78,6.36,7.52,9.13
		c6.56,6.64,9.49,8.63,9.65,8.33c0.28-0.52-1.78-2.51-2.78-3.41c-0.01-0.01-0.02-0.02-0.03-0.02c-0.28-0.26-0.57-0.53-0.85-0.79
		c-0.47-0.44-0.94-0.89-1.41-1.34c-0.2-0.2-0.4-0.4-0.6-0.6c-0.16-0.16-0.31-0.31-0.47-0.47c-0.16-0.16-0.31-0.33-0.47-0.49
		c-0.12-0.13-0.24-0.27-0.36-0.41c-0.11-0.14-0.23-0.28-0.34-0.41c0,0,0,0,0,0c-0.21-0.31-0.42-0.65-0.66-0.95
		c0-0.01-0.01-0.02-0.01-0.03c-0.07-0.15-0.16-0.3-0.23-0.46c-0.17-0.41-0.25-0.82-0.33-1.25c-0.24-1.88-0.15-3.76-0.13-5.66
		c0.02-2.07,0-4.14,0-6.21c0-4.17,0-8.33,0-12.5c0-5.35-0.01-10.7,0.01-16.05c0-1.06,0.01-2.12,0.02-3.18c0.07,0,0.14,0,0.21-0.01
		c2.29-0.07,4.97-0.25,7.02-1.37c0.68-0.37,1.29-0.88,1.91-1.38c-0.01,1.11-0.03,2.22-0.03,3.32c0,0.11,0,0.22,0,0.33
		c-0.04,0-0.04,0.05,0,0.13c0,4.83,0,9.67,0,14.5c0,4.93,0.05,9.86-0.04,14.78c-0.05,2.81,0.11,6.11,1.56,8.62
		c1.78,3.09,4.55,5.68,7.1,8.11c2.08,1.98,4.91,4.44,7.16,6.21c-0.1-0.08,1.45,1.26,1.73,1.06c0.38-0.28-5.25-6.38-7.27-8.12
		c-0.28-0.85-0.46-1.73-0.62-2.62c-0.24-1.88-0.15-3.76-0.13-5.65c0.02-2.07,0-4.14,0-6.21c0-4.02,0-8.03,0-12.05
		c0-3.09,0-6.18,0-9.27c2.42,0.01,4.68-0.59,6.61-2.09c1.84-1.44,3.54-3.49,4.66-5.54c0.66-1.21,1-2.53,1.5-3.8
		C246.03,50.2,246.48,49.3,247.46,49.33z"/>
	<path d="M61.4,84.45c-1.12-1.11-2.26-2.24-3.5-3.22c-0.4-0.32-1.18-1.15-1.73-1.06c-7.29,1.29-12.33,7.31-12.21,14.73
		c0,0.02,0,0.05,0.01,0.07c-0.52-0.47-1.04-0.95-1.56-1.42c-0.54-0.49-1.08-0.98-1.61-1.47c-0.28-0.26-0.56-0.51-0.84-0.77
		c-0.03-0.02-0.07-0.06-0.12-0.11c-1.31-1.2-2.61-2.41-3.92-3.61c-5.16-4.77-10.31-9.55-15.49-14.3
		c-0.83-9.12-0.08-18.53,3.43-27.06c3.16-7.68,8.62-13.84,15.52-18.38c3.91-2.57,8.49-4.52,13.25-3.91
		c2.62,0.47,4.63,1.61,6.72,3.09c0.66,0.66,1.32,1.31,1.98,1.97c1.12,1.11,2.27,2.23,3.5,3.22c0.04,0.03,1.37,1.24,1.73,1.06
		c0.46-0.24-4.24-5.19-4.28-5.23c-4.36-4.35-8.65-8.64-13.97-11.81c-5.4-3.22-11.61-1.92-16.77,1.07
		c-4.29,2.48-8.34,5.83-11.46,9.68c-3.82,4.71-6.37,10.32-7.84,16.18c-0.92,3.69-1.42,7.46-1.58,11.24c0,0,0,0,0,0
		c-0.1,3.19-3.53,4.92-6.41,4.54c-0.22-0.03,1.18,1.86,1.08,1.76c0.98,1.21,2.09,2.37,3.2,3.47c0.8,0.79,1.6,1.58,2.44,2.33
		c1.31,1.43,2.75,2.76,4.15,3.99c2.27,2,4.5,4.02,6.73,6.06c0.58,0.53,1.17,1.07,1.75,1.6c0.24,0.22,0.48,0.44,0.73,0.67
		c0.12,0.11,0.23,0.21,0.35,0.32c1.37,1.26,2.73,2.52,4.09,3.78c5.6,5.17,11.18,10.36,16.8,15.51c2.21,2.02,4.43,4.04,6.69,6.01
		c0.31,0.27,1.86,1.86,2.47,1.9c0.58,0.03,0.17-0.44-0.11-0.85c-0.36-0.51-0.75-1.02-1.16-1.52c0.08-7.22,5.06-13.04,12.21-14.31
		c0.25-0.04-1.02-1.67-1.08-1.75C63.61,86.71,62.51,85.55,61.4,84.45z M59.38,27.05C59.38,27.05,59.38,27.05,59.38,27.05
		c0.02,0.02,0.04,0.03,0.05,0.05C59.42,27.08,59.4,27.07,59.38,27.05z M59.41,27.07c0.02,0.01,0.04,0.03,0.06,0.04
		C59.75,27.32,60.24,27.84,59.41,27.07z M58.69,26.39c0.04,0.04,0.11,0.11,0.21,0.2c0.06,0.05,0.11,0.11,0.17,0.16
		c0.04,0.04,0.07,0.07,0.1,0.1C58.19,25.91,58.36,26.07,58.69,26.39z"/>
	<path d="M64.6,87.92c0.01,0.01,0.01,0.02,0.02,0.02C64.6,87.92,64.59,87.92,64.6,87.92z"/>
	<path d="M296.88,39.81c-0.01-0.01-0.02-0.02-0.03-0.03C296.87,39.8,296.88,39.81,296.88,39.81z"/>
	<path d="M177.43,122.04C177.43,122.04,177.42,122.03,177.43,122.04C177.43,122.04,177.43,122.04,177.43,122.04z"/>
	<path d="M195.98,122.04C195.98,122.04,195.98,122.03,195.98,122.04C195.98,122.04,195.98,122.04,195.98,122.04z"/>
	<path d="M200.47,121.99C200.47,121.99,200.47,121.98,200.47,121.99C200.47,121.99,200.47,121.99,200.47,121.99z"/>
	<path d="M264.19,121.99C264.18,121.99,264.18,121.98,264.19,121.99C264.18,121.99,264.19,121.99,264.19,121.99z"/>
	<path d="M253.11,122.04C253.11,122.04,253.11,122.03,253.11,122.04C253.11,122.04,253.11,122.04,253.11,122.04z"/>
	<g>
		<path d="M166.51,112.39h8.47v1.81h-6.48v3.14h5.75v1.81h-5.75v4.64h-1.99V112.39z"/>
		<path d="M182.64,123.99c-0.88,0-1.68-0.16-2.41-0.46c-0.73-0.31-1.35-0.73-1.87-1.26c-0.52-0.53-0.93-1.15-1.22-1.87
			c-0.29-0.71-0.44-1.47-0.44-2.27v-0.03c0-0.8,0.15-1.56,0.44-2.27c0.29-0.71,0.71-1.34,1.24-1.87c0.53-0.54,1.16-0.96,1.89-1.28
			c0.73-0.31,1.53-0.47,2.41-0.47c0.88,0,1.68,0.15,2.41,0.46s1.35,0.73,1.87,1.26s0.93,1.15,1.22,1.87s0.44,1.47,0.44,2.27v0.03
			c0,0.8-0.15,1.56-0.44,2.27s-0.71,1.34-1.24,1.87c-0.53,0.54-1.16,0.96-1.89,1.28C184.32,123.84,183.52,123.99,182.64,123.99z
			 M182.67,122.15c0.56,0,1.08-0.11,1.55-0.32c0.47-0.21,0.87-0.5,1.21-0.86c0.34-0.36,0.6-0.79,0.79-1.28
			c0.19-0.49,0.28-1.01,0.28-1.56v-0.03c0-0.55-0.09-1.08-0.28-1.57c-0.19-0.49-0.45-0.92-0.8-1.29c-0.34-0.36-0.75-0.65-1.22-0.87
			c-0.48-0.22-1-0.33-1.56-0.33s-1.08,0.11-1.55,0.32c-0.47,0.21-0.87,0.5-1.21,0.86s-0.6,0.79-0.79,1.28
			c-0.19,0.49-0.28,1.01-0.28,1.56v0.03c0,0.55,0.09,1.08,0.28,1.57c0.19,0.49,0.45,0.92,0.8,1.29c0.34,0.36,0.75,0.66,1.23,0.87
			C181.59,122.04,182.11,122.15,182.67,122.15z"/>
		<path d="M195.72,123.98c-0.74,0-1.41-0.11-2-0.32c-0.6-0.21-1.11-0.53-1.53-0.95c-0.42-0.42-0.75-0.95-0.98-1.57
			c-0.23-0.62-0.34-1.35-0.34-2.18v-6.57h1.99v6.48c0,1.06,0.26,1.87,0.77,2.43c0.51,0.55,1.22,0.83,2.13,0.83
			c0.9,0,1.6-0.27,2.11-0.8c0.51-0.53,0.77-1.33,0.77-2.38v-6.57h1.99v6.47c0,0.85-0.12,1.59-0.35,2.23
			c-0.23,0.64-0.56,1.18-0.99,1.61c-0.42,0.43-0.94,0.75-1.54,0.96C197.15,123.87,196.47,123.98,195.72,123.98z"/>
		<path d="M203.38,112.39h1.85l6.1,7.89v-7.89h1.99v11.41h-1.68l-6.28-8.11v8.11h-1.99V112.39z"/>
		<path d="M216.25,112.39h4.25c0.89,0,1.71,0.14,2.45,0.43s1.39,0.69,1.92,1.2c0.54,0.51,0.95,1.11,1.25,1.8
			c0.29,0.69,0.44,1.44,0.44,2.24v0.03c0,0.8-0.15,1.55-0.44,2.25c-0.29,0.7-0.71,1.3-1.25,1.81c-0.54,0.51-1.18,0.91-1.92,1.21
			c-0.74,0.29-1.56,0.44-2.45,0.44h-4.25V112.39z M220.49,121.99c0.6,0,1.14-0.1,1.63-0.29c0.49-0.19,0.9-0.46,1.25-0.8
			c0.34-0.34,0.61-0.75,0.8-1.23c0.19-0.47,0.29-0.99,0.29-1.55v-0.03c0-0.56-0.1-1.07-0.29-1.55c-0.19-0.48-0.46-0.89-0.8-1.24
			c-0.34-0.34-0.76-0.61-1.25-0.81c-0.49-0.2-1.03-0.29-1.63-0.29h-2.25v7.79H220.49z"/>
		<path d="M233.03,112.31h1.86l5.02,11.49h-2.12l-1.16-2.75h-5.39l-1.17,2.75h-2.05L233.03,112.31z M235.9,119.27l-1.97-4.56
			l-1.95,4.56H235.9z"/>
		<path d="M244.66,114.25h-3.62v-1.86h9.25v1.86h-3.62v9.55h-2.02V114.25z"/>
		<path d="M252.53,112.39h1.99v11.41h-1.99V112.39z"/>
		<path d="M263.03,123.99c-0.88,0-1.68-0.16-2.41-0.46c-0.73-0.31-1.35-0.73-1.87-1.26c-0.52-0.53-0.93-1.15-1.22-1.87
			s-0.44-1.47-0.44-2.27v-0.03c0-0.8,0.15-1.56,0.44-2.27s0.71-1.34,1.24-1.87c0.53-0.54,1.16-0.96,1.89-1.28
			c0.73-0.31,1.53-0.47,2.41-0.47c0.88,0,1.68,0.15,2.41,0.46s1.35,0.73,1.87,1.26c0.52,0.53,0.93,1.15,1.22,1.87
			s0.44,1.47,0.44,2.27v0.03c0,0.8-0.15,1.56-0.44,2.27s-0.71,1.34-1.24,1.87s-1.16,0.96-1.89,1.28
			C264.71,123.84,263.91,123.99,263.03,123.99z M263.06,122.15c0.56,0,1.08-0.11,1.55-0.32c0.47-0.21,0.87-0.5,1.21-0.86
			c0.33-0.36,0.6-0.79,0.79-1.28c0.19-0.49,0.28-1.01,0.28-1.56v-0.03c0-0.55-0.09-1.08-0.28-1.57c-0.19-0.49-0.45-0.92-0.8-1.29
			c-0.34-0.36-0.75-0.65-1.22-0.87c-0.48-0.22-1-0.33-1.56-0.33s-1.08,0.11-1.55,0.32c-0.47,0.21-0.87,0.5-1.21,0.86
			c-0.34,0.36-0.6,0.79-0.79,1.28c-0.19,0.49-0.29,1.01-0.29,1.56v0.03c0,0.55,0.1,1.08,0.29,1.57c0.19,0.49,0.45,0.92,0.79,1.29
			c0.34,0.36,0.75,0.66,1.23,0.87C261.98,122.04,262.5,122.15,263.06,122.15z"/>
		<path d="M271.43,112.39h1.85l6.1,7.89v-7.89h1.99v11.41h-1.68l-6.28-8.11v8.11h-1.99V112.39z"/>
	</g>
</g>
</svg>
